<svg id="Layer_1" data-name="Layer 1" xmlns="http://www.w3.org/2000/svg" xmlns:xlink="http://www.w3.org/1999/xlink" viewBox="0 0 138.46 135.21"><defs><style>.cls-1{fill:none;}.cls-2{clip-path:url(#clip-path);}.cls-3{fill:url(#radial-gradient);}.cls-4{clip-path:url(#clip-path-2);}.cls-5{fill:url(#radial-gradient-2);}</style><clipPath id="clip-path"><path class="cls-1" d="M66.21,1A66.46,66.46,0,1,0,69.3.89c-1,0-2,0-3.09.08"/></clipPath><radialGradient id="radial-gradient" cx="-541.65" cy="282.41" r="3.81" gradientTransform="translate(9081.29 -4648.08) scale(16.62 16.62)" gradientUnits="userSpaceOnUse"><stop offset="0" stop-color="#fff"/><stop offset="0.34" stop-color="#e9d2b2"/><stop offset="0.65" stop-color="#dab37c"/><stop offset="0.88" stop-color="#d1a25d"/><stop offset="1" stop-color="#ce9b51"/></radialGradient><clipPath id="clip-path-2"><path class="cls-1" d="M54,124.92c-7.47-.74-16.38-3.08-24.15-9.81C22.69,108.94,18.27,100.46,16.11,93c-2.19-7.63-3.12-16.55.52-15.85,1.11.21,3.05,5.12,5.15,8.7s3.92,5.72,5.58,7c.74.57,3.29-5.1,7-8.33,2.16-1.78,4.5-2.39,4.9,2.92.45,6.51-.73,14.26,1.19,14.26,1.76,0,5.77-1.33,14.58-2.09,3.3-.28,5.19.35,2,4.78a33.34,33.34,0,0,1-8.67,9c7.48,7,16.45,6.15,16.62,9.14.1,1.71-3.25,2.65-7.64,2.65a33.64,33.64,0,0,1-3.4-.17m25.19-63a10.73,10.73,0,0,1-8.26-7.65,22.64,22.64,0,0,1-.24-8.49c.92-7.39,2.93-10.84,5.2-16.57,3.05-7.69-4.37-12.18-3.16-15,1.66-3.83,7,1,12.9,1.4,5.08.27,8.15,0,12.1.55,5.27.69,11.56,2.48,14.37,5.77,2.57,3-1.37,6.68-6.07,4.39-3.46-1.69-7.8-.66-5.24,2.94,3,3.42,4.52,3.51,7.66,4.33,8.61,2.27,8.79,10.54,3,14.79-6.62,4.86-13.36,2.84-16-6.67C94,37,90.66,34.55,87.21,35.91S85.82,43.5,88.43,49.3C92.92,60.79,83.81,62,80.33,62a8.33,8.33,0,0,1-1.15-.07m-5,65.14c-.07-1.53,2.17-1.91,2.17-1.91,20-4,14.15-17.06,7.08-23.75-3-2.8-30.82-26.84-30.82-26.84C26.12,51.73,28.24,33.9,28.24,33.9c1.31-22,20.51-27.41,35.05-26.14,1.71.15,2.66,1.17,2.34,2.6S63.07,12,63.07,12c-4.63.28-8.78.74-11.92,2.87-11.71,7.88-8.28,21.29,7.36,36.22C60.48,53,62.57,55,64.73,57c0,0,3.12,2.77,9.38,8.7,12,11.07,18.59,17,18.59,17,21.19,17.65,13.93,33.78,5.86,39.38-6.18,4.28-13,6.29-22,6.77l-.23,0a2,2,0,0,1-2.11-1.8M66.16.07A67.6,67.6,0,1,0,69.26,0c-1,0-2.07,0-3.1.07"/></clipPath><radialGradient id="radial-gradient-2" cx="-560.41" cy="262.85" r="3.81" gradientTransform="translate(20932.67 -9730.22) scale(37.21 37.21)" gradientUnits="userSpaceOnUse"><stop offset="0" stop-color="#1abff1"/><stop offset="0.1" stop-color="#15abe2"/><stop offset="0.22" stop-color="#1197d4"/><stop offset="0.22" stop-color="#1196d3"/><stop offset="0.28" stop-color="#1184c7"/><stop offset="0.34" stop-color="#1077bd"/><stop offset="0.41" stop-color="#0f6eb7"/><stop offset="0.48" stop-color="#0e69b4"/><stop offset="0.57" stop-color="#0e67b2"/><stop offset="1" stop-color="#0e67b2"/></radialGradient></defs><g class="cls-2"><rect class="cls-3" x="0.92" y="0.89" width="136.62" height="135.01"/></g><g class="cls-4"><rect class="cls-5" width="138.46" height="136.82"/></g></svg>